<?xml version="1.0" encoding="UTF-8" standalone="no"?>
<!-- Created with Inkscape (http://www.inkscape.org/) -->

<svg
   width="131.7618mm"
   height="182.57787mm"
   viewBox="0 0 131.7618 182.57787"
   version="1.1"
   id="svg170928"
   inkscape:version="1.1.2 (b8e25be833, 2022-02-05)"
   sodipodi:docname="hiCat.svg"
   xmlns:inkscape="http://www.inkscape.org/namespaces/inkscape"
   xmlns:sodipodi="http://sodipodi.sourceforge.net/DTD/sodipodi-0.dtd"
   xmlns="http://www.w3.org/2000/svg"
   xmlns:svg="http://www.w3.org/2000/svg">
  <sodipodi:namedview
     id="namedview170930"
     pagecolor="#ffffff"
     bordercolor="#666666"
     borderopacity="1.0"
     inkscape:pageshadow="2"
     inkscape:pageopacity="0.0"
     inkscape:pagecheckerboard="0"
     inkscape:document-units="mm"
     showgrid="false"
     inkscape:zoom="0.37014941"
     inkscape:cx="214.77813"
     inkscape:cy="391.7337"
     inkscape:window-width="1366"
     inkscape:window-height="705"
     inkscape:window-x="-1374"
     inkscape:window-y="298"
     inkscape:window-maximized="1"
     inkscape:current-layer="layer1"
     fit-margin-top="0"
     fit-margin-left="0"
     fit-margin-right="0"
     fit-margin-bottom="0" />
  <defs
     id="defs170925" />
  <g
     inkscape:label="Capa 1"
     inkscape:groupmode="layer"
     id="layer1"
     transform="translate(259.23469,-65.967387)">
    <path
       d="m -219.6325,163.55264 c -6.28297,5.63034 -15.21883,5.78556 -23.36094,5.34106 -4.4062,-0.23989 -15.71978,-3.82411 -15.2012,2.51883 0.83256,10.13884 24.9167,12.30489 31.22084,10.16353 l 7.3413,-18.02342"
       style="fill:#39393a;fill-opacity:1;fill-rule:nonzero;stroke:none;stroke-width:0.0352778"
       id="path403" />
    <path
       d="m -151.0278,204.27026 c -0.91369,8.18091 -4.64961,17.7836 -10.67858,23.55151 -4.35328,4.16278 -19.50156,9.606 -21.9322,0.47611 -2.08139,-7.8245 10.14589,-7.42241 14.07584,-10.21997 6.14186,-4.36725 8.62894,-14.13221 8.68539,-21.14896 0.0917,-11.42295 -1.41112,-22.01686 2.49061,-32.85772 3.32316,-9.23925 14.1605,-18.84187 24.86025,-15.71978 5.00239,1.4605 8.32908,7.18608 4.16983,11.36297 -3.39372,3.41136 -8.8265,2.16253 -12.8658,5.82436 -9.0417,8.19856 -7.54592,27.41436 -8.80534,38.73148"
       style="fill:#525355;fill-opacity:1;fill-rule:nonzero;stroke:none;stroke-width:0.0352778"
       id="path405" />
    <path
       d="m -219.47375,245.65109 c 14.70731,3.76067 38.51276,3.59834 47.31103,-9.34159 12.00503,-17.65653 0.16581,-47.58616 -6.7945,-65.80713 -4.79778,-12.55889 -16.3583,-28.40215 -31.91933,-20.72217 -9.88131,4.87539 -12.88698,22.49311 -16.98625,31.79939 -8.75595,19.87197 -22.22853,56.24329 8.38905,64.0715"
       style="fill:#525355;fill-opacity:1;fill-rule:nonzero;stroke:none;stroke-width:0.0352778"
       id="path407" />
    <path
       d="m -224.97355,204.93701 c -1.73214,-15.34584 -13.02809,-13.09159 -17.09562,-0.3422 -1.96144,6.16656 -3.48191,14.55907 -2.27541,21.03614 1.57691,8.44543 10.53394,16.40057 18.05869,19.85436 3.41489,1.56987 10.98903,5.54564 13.86417,0.81842 2.5647,-4.22271 -3.95111,-8.56548 -6.37822,-11.47946 -8.38553,-10.06824 -4.81542,-17.84339 -6.17361,-29.88726"
       style="fill:#39393a;fill-opacity:1;fill-rule:nonzero;stroke:none;stroke-width:0.0352778"
       id="path409" />
    <path
       d="m -180.43888,204.93701 c 1.72861,-15.34584 13.02455,-13.09159 17.09208,-0.3422 1.96497,6.16656 3.48192,14.55907 2.27542,21.03614 -1.57692,8.44543 -10.53042,16.40057 -18.05517,19.85436 -3.41489,1.56987 -10.99256,5.54564 -13.86417,0.81842 -2.56822,-4.22271 3.95111,-8.56548 6.37822,-11.47946 8.38553,-10.06824 4.81542,-17.84339 6.17362,-29.88726"
       style="fill:#39393a;fill-opacity:1;fill-rule:nonzero;stroke:none;stroke-width:0.0352778"
       id="path411" />
    <path
       d="m -180.67524,177.23337 c 3.54541,-3.72181 8.77711,-13.32089 2.67052,-17.46603 -5.88786,-3.99698 -9.79664,4.064 -12.96458,7.47536 -4.56847,4.92125 -11.35592,7.67292 -16.58409,11.82511 -9.14047,7.26017 -2.90336,12.65414 7.20726,10.53042 6.67808,-1.40053 14.95425,-7.41539 19.67089,-12.36486"
       style="fill:#39393a;fill-opacity:1;fill-rule:nonzero;stroke:none;stroke-width:0.0352778"
       id="path413" />
    <path
       d="m -221.33994,76.797526 c -2.93864,-4.01109 -10.30111,-4.27567 -14.86606,-4.67078 -4.5085,-0.38453 -9.57086,-2.52942 -13.97,-1.0407 -0.97719,11.11603 -0.8255,24.75442 5.12233,34.579284 l 23.71373,-28.867804"
       style="fill:#39393a;fill-opacity:1;fill-rule:nonzero;stroke:none;stroke-width:0.0352778"
       id="path415" />
    <path
       d="m -193.59397,78.624906 c 1.9932,-4.62491 9.09814,-6.68866 13.45495,-8.18797 4.30389,-1.48519 8.76653,-4.80836 13.37028,-4.44147 3.35491,10.57981 6.1595,23.88658 2.49414,34.907364 l -29.31937,-22.277924"
       style="fill:#39393a;fill-opacity:1;fill-rule:nonzero;stroke:none;stroke-width:0.0352778"
       id="path417" />
    <path
       d="m -152.96102,151.216 c -2.8187,-0.93133 -6.47347,-0.70555 -9.53206,-0.9278 1.59456,3.23497 6.10306,5.19994 6.08542,9.34155 -4.97769,-1.98261 -11.88861,-1.81327 -17.44486,-2.07433 -0.82197,-0.0388 -1.651,-0.0459 -2.48003,-0.0106 -6.53697,0.20814 -13.06689,2.29305 -19.45922,3.53836 -3.31259,0.64558 -6.70631,1.09361 -10.0965,1.40758 -0.35631,0.0317 -0.70909,0.0635 -1.06539,0.0917 -1.55575,0.13759 -3.10798,0.24342 -4.65314,0.32809 -5.66209,0.31397 -11.02431,-0.43039 -16.45003,-0.94192 -4.04283,-0.37747 -8.12095,-0.61736 -12.37192,-0.19756 -4.07458,0.41275 -8.79828,2.42359 -12.64355,2.38478 1.36877,-3.64772 4.86833,-5.98664 7.47183,-8.60778 -3.16089,-1.34761 -8.03275,-0.004 -10.87967,1.27706 -0.61736,-3.62656 4.13809,-6.223 6.43467,-7.92692 -3.25967,-0.40569 -6.21947,2.20839 -9.18281,2.06375 -0.24341,-4.28272 6.51934,-9.72961 7.82814,-14.05114 1.31586,-4.35328 2.99156,-9.00641 2.76931,-13.6525 -0.29281,-6.2618 -1.9297,-11.7228 -0.95956,-18.12219 0.36689,-2.41653 0.71261,-4.75545 1.22767,-7.002644 0.74436,-3.27378 1.83092,-6.37117 3.82764,-9.27806 4.97064,-7.25311 11.92036,-11.70164 19.66383,-14.71083 2.74461,-1.06892 5.59153,-1.95439 8.48431,-2.72345 0.11289,-0.0247 0.22578,-0.06 0.33867,-0.0882 4.46263,-1.13947 9.00288,-1.40053 13.51138,-1.04422 3.47134,0.27163 6.93209,0.91369 10.33287,1.80622 1.57339,0.41275 3.11855,0.78316 4.63197,1.17475 4.90008,1.26294 9.41917,2.73755 13.28208,6.59341 5.5245,5.51392 8.56192,12.5342 10.33992,20.00251 1.37936,5.806724 2.00378,11.878024 2.45181,17.702394 0.38452,5.00591 0.1023,10.99961 2.06375,15.51516 1.63689,3.77473 6.16655,5.72206 7.83872,9.37684 -2.65289,-1.46756 -5.40103,0.0212 -8.15975,0.13758 3.13619,1.93322 5.78203,4.9142 6.7945,8.61836"
       style="fill:#525355;fill-opacity:1;fill-rule:nonzero;stroke:none;stroke-width:0.0352778"
       id="path419" />
    <path
       d="m -173.15755,146.43234 c -1.36172,20.79272 -36.64303,20.43994 -49.77342,16.21366 -11.39119,-3.66889 -18.59845,-13.7548 -12.62944,-26.5183 3.21733,-6.87564 10.68211,-10.52337 16.74989,-14.28045 3.03388,-1.8803 2.67052,-4.84011 3.09033,-8.73831 0.98425,-9.04169 -0.3422,-18.220974 -0.33161,-27.305004 0.004,-4.82247 0.0459,-9.64847 0.004,-14.47094 4.46263,-1.13947 9.00288,-1.40053 13.51138,-1.04422 -0.23988,9.39447 0.0811,18.78894 1.13242,28.13402 0.59267,5.281094 -0.70555,10.675064 0.33161,15.942034 1.49578,7.58825 11.38414,9.06992 16.82398,12.6612 6.97089,4.60728 11.70516,10.13883 11.09133,19.40631"
       style="fill:#939495;fill-opacity:1;fill-rule:nonzero;stroke:none;stroke-width:0.0352778"
       id="path423" />
    <path
       d="m -210.09339,130.3492 c 0.0317,0.0388 0.0635,0.0741 0.0952,0.11288 -0.1658,-0.29986 -0.32808,-0.59972 -0.49388,-0.89958 0.27869,0.92781 1.07244,1.67922 1.94027,1.97203 0.61384,0.20814 1.23473,0.25047 1.86973,0.34219 0.76552,0.10584 1.85913,-0.56797 2.16252,-1.32291 0.19403,-0.48331 0.2787,-0.81845 0.3422,-1.34409 0.13758,-1.18886 -0.87489,-2.24719 -1.8415,-2.57175 -1.66511,-0.56091 -3.85586,-0.14816 -4.47322,1.8415 0.1658,-0.29986 0.32808,-0.59972 0.49388,-0.89605 -0.0317,0.0353 -0.0635,0.0741 -0.0952,0.11289 -0.66322,0.81844 -0.65969,1.83444 0,2.65289 v 0"
       style="fill:#1d1b19;fill-opacity:1;fill-rule:nonzero;stroke:none;stroke-width:0.0352778"
       id="path425" />
    <path
       d="m -214.34083,138.62184 c 1.11125,3.04094 5.07647,1.76388 6.58989,-0.17287 1.64747,-2.11666 2.49414,-6.57577 0.76905,-8.85472 -0.73025,-0.97014 -1.90852,-0.0494 -2.01788,0.889 -0.11642,0.98778 0.254,2.04258 0.25047,3.05506 -0.004,0.9525 -0.22578,1.90147 -0.635,2.74461 -1.05481,2.16253 -2.98097,1.12889 -4.70606,1.86267 -0.1658,0.0741 -0.32808,0.26458 -0.25047,0.47625 v 0"
       style="fill:#1d1b19;fill-opacity:1;fill-rule:nonzero;stroke:none;stroke-width:0.0352778"
       id="path427" />
    <path
       d="m -199.72172,137.20367 c -0.71261,-0.72672 -1.36525,-0.37747 -2.23308,-0.26106 -0.87136,0.11289 -1.49578,-0.43391 -1.95086,-1.16064 -0.51153,-0.81138 -0.84667,-1.70744 -1.09714,-2.63877 -0.31397,-1.17123 -0.26811,-2.3495 -0.85372,-3.429 -0.508,-0.93487 -2.07081,-1.09714 -2.53648,0 -1.21355,2.86808 0.635,7.3413 2.95628,9.08402 1.17122,0.87842 2.42711,1.14653 3.83117,0.89959 0.73025,-0.127 2.94922,-1.40406 1.88383,-2.49414 v 0"
       style="fill:#1d1b19;fill-opacity:1;fill-rule:nonzero;stroke:none;stroke-width:0.0352778"
       id="path429" />
    <path
       d="m -181.75827,110.13503 c -0.0106,0.16228 -0.0247,0.32455 -0.0317,0.48683 0.0529,-0.40569 0.0564,-0.49389 0.0106,-0.26105 -0.067,0.28222 -0.11994,0.57855 -0.0882,0.86783 0.12347,1.14653 0.49036,2.12372 1.48872,2.72344 0.67733,0.40923 1.51342,0.42334 2.18722,0 0.61031,-0.37747 1.15006,-1.2065 1.07597,-1.98966 -0.0282,-0.30339 -0.0176,-0.58561 -0.0988,-0.89253 -0.0776,-0.24342 -0.17287,-0.47978 -0.28928,-0.70203 0.14111,0.381 0.17286,0.45508 0.0988,0.21872 -0.0953,-0.31044 -0.22578,-0.60325 -0.37395,-0.89252 0.17639,0.85372 0.23989,1.0795 0.19403,0.68438 -0.007,-0.0811 -0.0141,-0.16227 -0.0212,-0.24341 -0.1023,-1.19945 -0.86783,-2.20839 -2.07433,-2.20839 -1.2065,0 -1.97556,1.00894 -2.07786,2.20839 v 0"
       style="fill:#1d1b19;fill-opacity:1;fill-rule:nonzero;stroke:none;stroke-width:0.0352778"
       id="path431" />
    <path
       d="m -233.51078,112.08589 c 0.11289,0.51858 -0.004,-0.39511 0.0176,0.1658 0.0106,0.254 -0.0212,0.51506 -0.0353,0.76906 -0.0459,0.80081 0.13052,1.54869 0.43038,2.27894 0.52917,1.29117 2.68817,1.30528 3.21381,0 0.36689,-0.91016 0.51858,-1.86266 0.28928,-2.84691 -0.14817,-0.62442 -0.38453,-1.26647 -0.74084,-1.79211 -0.45861,-0.68086 -1.15358,-1.08303 -1.96144,-0.84667 -0.94192,0.27517 -1.42522,1.29117 -1.21356,2.27189 v 0"
       style="fill:#1d1b19;fill-opacity:1;fill-rule:nonzero;stroke:none;stroke-width:0.0352778"
       id="path433" />
  </g>
</svg>
