<?xml version="1.0" encoding="UTF-8" standalone="no"?>
<!-- Created with Inkscape (http://www.inkscape.org/) -->

<svg
   width="11.225565mm"
   height="23.42313mm"
   viewBox="0 0 11.225565 23.42313"
   version="1.1"
   id="svg5"
   inkscape:version="1.2.1 (9c6d41e410, 2022-07-14)"
   sodipodi:docname="open.svg"
   xmlns:inkscape="http://www.inkscape.org/namespaces/inkscape"
   xmlns:sodipodi="http://sodipodi.sourceforge.net/DTD/sodipodi-0.dtd"
   xmlns="http://www.w3.org/2000/svg"
   xmlns:svg="http://www.w3.org/2000/svg">
  <sodipodi:namedview
     id="namedview7"
     pagecolor="#ffffff"
     bordercolor="#000000"
     borderopacity="0.25"
     inkscape:showpageshadow="2"
     inkscape:pageopacity="0.0"
     inkscape:pagecheckerboard="0"
     inkscape:deskcolor="#d1d1d1"
     inkscape:document-units="mm"
     showgrid="false"
     inkscape:zoom="0.96568462"
     inkscape:cx="-41.939158"
     inkscape:cy="-159.99012"
     inkscape:window-width="1920"
     inkscape:window-height="1044"
     inkscape:window-x="0"
     inkscape:window-y="0"
     inkscape:window-maximized="1"
     inkscape:current-layer="text113" />
  <defs
     id="defs2" />
  <g
     inkscape:label="Capa 1"
     inkscape:groupmode="layer"
     id="layer1"
     transform="translate(-35.536742,-139.58078)">
    <g
       aria-label="&lt; maxisan &gt;"
       id="text113"
       style="font-weight:300;font-size:20.5213px;font-family:'Signika Negative';-inkscape-font-specification:'Signika Negative Light';stroke-width:1.71011">
      <g
         id="g671"
         transform="translate(0.13647167)">
        <path
           d="m 45.508484,49.799 q 0.492511,0 0.6259,0.25652 0.133388,0.24625 0.133388,0.7285 V 59.916 q -0.277037,0.0616 -0.697724,0.0616 -0.441208,0 -0.718245,-0.0616 V 49.94265 L 44.97493,49.799 Z m 4.945633,3.52966 q 0,-1.2518 -0.31808,-1.80587 -0.307819,-0.55408 -1.097889,-0.55408 -0.554075,0 -1.190236,0.30782 -0.625899,0.30782 -1.190235,0.88242 -0.564336,0.56433 -0.902937,1.33388 v -1.62118 q 0.420686,-0.68746 0.995283,-1.17997 0.584857,-0.49252 1.241538,-0.74903 0.656682,-0.26678 1.313364,-0.26678 0.892676,0 1.457012,0.43095 0.574596,0.43095 0.841373,1.14919 0.266777,0.71825 0.266777,1.58014 V 59.916 q -0.277038,0.0616 -0.697724,0.0616 -0.441208,0 -0.718246,-0.0616 z m 5.622836,-0.0205 q 0,-1.2518 -0.31808,-1.79561 -0.307819,-0.54382 -1.097889,-0.54382 -0.543815,0 -1.169714,0.2873 -0.6259,0.2873 -1.200496,0.85164 -0.574597,0.56433 -0.974762,1.38518 v -1.97004 q 0.533554,-0.55408 1.118411,-0.9645 0.584857,-0.42069 1.210756,-0.64642 0.6259,-0.236 1.282582,-0.236 0.892676,0 1.457012,0.43095 0.564336,0.43095 0.831112,1.14919 0.277038,0.71825 0.277038,1.58014 v 5.17137 q 0,0.49251 0.04104,0.94398 0.0513,0.44121 0.184691,0.77981 -0.153909,0.13339 -0.410426,0.21547 -0.246255,0.0923 -0.492511,0.0923 -0.400165,0 -0.574596,-0.236 -0.164171,-0.23599 -0.164171,-0.70798 z"
           id="path283" />
        <path
           d="m 60.283799,57.18667 q 0,-1.12867 0.48225,-1.85718 0.482251,-0.72851 1.344145,-1.07737 0.861895,-0.34886 2.011088,-0.34886 0.64642,0 1.385187,0.0718 0.749028,0.0616 1.405709,0.236 v 1.02606 q -0.615639,-0.14365 -1.354406,-0.19495 -0.728506,-0.0513 -1.43649,-0.0513 -1.087629,0 -1.73405,0.54381 -0.646421,0.54382 -0.646421,1.54936 0,0.76955 0.420686,1.31336 0.430948,0.53356 1.241539,0.53356 0.831113,0 1.785353,-0.5746 0.964501,-0.5746 1.621183,-1.74431 l 0.246255,1.35441 q -0.348862,0.41042 -0.913198,0.92345 -0.554075,0.51304 -1.292841,0.89268 -0.728506,0.37965 -1.610922,0.37965 -0.995283,0 -1.651965,-0.44121 -0.656682,-0.44121 -0.985022,-1.11841 -0.31808,-0.68747 -0.31808,-1.41597 z m 8.085391,2.13421 q -0.07182,0.19495 -0.256516,0.41043 -0.184691,0.21547 -0.420686,0.32834 Q 67.209737,59.8647 66.9327,59.53636 66.655662,59.20801 66.532534,58.77707 66.419667,58.33586 66.419667,57.80231 v -4.78147 q 0,-1.16971 -0.513032,-1.65196 -0.513033,-0.48225 -1.374928,-0.48225 -0.841373,0 -1.693007,0.24625 -0.851634,0.24626 -1.672486,0.61564 -0.194952,-0.17443 -0.359122,-0.50277 -0.15391,-0.3386 -0.15391,-0.6259 0.502772,-0.22573 1.149193,-0.44121 0.656681,-0.22573 1.385187,-0.36938 0.728507,-0.15391 1.446752,-0.15391 1.077368,0 1.775092,0.40017 0.707985,0.3899 1.046587,1.14919 0.338601,0.75929 0.338601,1.85718 v 4.22738 q 0,0.65668 0.09235,1.15946 0.102606,0.50277 0.48225,0.87215 z"
           id="path285" />
        <path
           d="m 70.298159,50.04525 q 0.184692,-0.12312 0.461729,-0.23599 0.277038,-0.11287 0.523293,-0.11287 0.266777,0 0.420687,0.11287 0.16417,0.11287 0.297559,0.31808 l 6.238475,9.58345 q -0.194953,0.12312 -0.482251,0.23599 -0.277037,0.11287 -0.523293,0.11287 -0.256516,0 -0.420687,-0.12313 -0.153909,-0.11287 -0.297558,-0.30782 z m 6.115347,-0.18469 q 0.08208,-0.0308 0.266777,-0.0513 0.194952,-0.0308 0.348862,-0.0308 0.235995,0 0.420687,0.041 0.184691,0.0308 0.277037,0.0821 l 0.06156,0.12312 -3.057674,4.82251 -0.451468,0.49251 -2.872982,4.59677 q -0.07183,0.0308 -0.287298,0.0513 -0.215474,0.0308 -0.369384,0.0308 -0.194952,0 -0.379644,-0.041 -0.184691,-0.041 -0.297558,-0.1026 l -0.06156,-0.12313 3.468099,-5.3971 0.513033,-0.5746 z"
           id="path287" />
        <path
           d="m 82.118399,59.916 q -0.277037,0.0616 -0.697724,0.0616 -0.441208,0 -0.718245,-0.0616 v -7.98279 q 0,-0.57459 -0.184692,-0.77981 -0.174431,-0.20521 -0.656682,-0.20521 h -0.184691 q -0.06156,-0.27704 -0.06156,-0.53355 0,-0.14365 0.01026,-0.25652 0.02052,-0.12313 0.0513,-0.27704 0.338601,-0.0513 0.584857,-0.0616 0.246255,-0.0205 0.400165,-0.0205 h 0.16417 q 0.615639,0 0.954241,0.37964 0.338601,0.36939 0.338601,1.03633 z m -2.05213,-12.70268 q 0,-0.45147 0.143649,-0.73877 0.143649,-0.0923 0.400166,-0.14365 0.256516,-0.0616 0.48225,-0.0616 0.205213,0 0.482251,0.0616 0.277037,0.0513 0.400165,0.14365 0.06156,0.12313 0.102607,0.3386 0.04104,0.21547 0.04104,0.40017 0,0.45146 -0.143649,0.73876 -0.102606,0.0923 -0.389905,0.15391 -0.287298,0.0513 -0.492511,0.0513 -0.225734,0 -0.48225,-0.0513 -0.256517,-0.0616 -0.400166,-0.15391 -0.143649,-0.2873 -0.143649,-0.73876 z"
           id="path289" />
        <path
           d="m 84.704075,59.13619 q 0.02052,-0.26678 0.184692,-0.5746 0.174431,-0.30782 0.389905,-0.47199 0.636156,0.34887 1.385186,0.64642 0.74903,0.29756 1.52884,0.29756 1.00554,0 1.61092,-0.46173 0.61564,-0.46172 0.6259,-1.17997 0,-0.52329 -0.40017,-0.97476 -0.3899,-0.46173 -1.11841,-0.72851 l -1.22101,-0.45147 q -0.69773,-0.25651 -1.30311,-0.6259 -0.59511,-0.37964 -0.9645,-0.91319 -0.35912,-0.54382 -0.35912,-1.29285 0,-0.87215 0.46173,-1.49805 0.47199,-0.6259 1.24154,-0.95424 0.77981,-0.3386 1.70327,-0.3386 0.75928,0 1.61092,0.19495 0.85163,0.18469 1.46727,0.46173 0,0.2873 -0.12313,0.60538 -0.11286,0.30782 -0.32834,0.52329 -0.47199,-0.21547 -1.17997,-0.41043 -0.69773,-0.20521 -1.4878,-0.20521 -0.83111,0 -1.36466,0.42069 -0.5233,0.41042 -0.5233,1.11841 0,0.53355 0.40017,0.89268 0.40016,0.34886 1.17997,0.64642 l 1.26206,0.47199 q 1.13894,0.42068 1.8264,1.13893 0.69772,0.70798 0.69772,1.81613 0,1.35441 -1.0671,2.1137 -1.05685,0.75929 -2.68829,0.75929 -1.07737,0 -1.94953,-0.30782 -0.86189,-0.31808 -1.498053,-0.71825 z"
           id="path291" />
        <path
           d="m 93.897578,57.18667 q 0,-1.12867 0.48225,-1.85718 0.48225,-0.72851 1.34415,-1.07737 0.86189,-0.34886 2.01108,-0.34886 0.64642,0 1.38519,0.0718 0.74903,0.0616 1.405712,0.236 v 1.02606 q -0.615642,-0.14365 -1.354412,-0.19495 -0.7285,-0.0513 -1.43649,-0.0513 -1.08763,0 -1.73405,0.54381 -0.64642,0.54382 -0.64642,1.54936 0,0.76955 0.42069,1.31336 0.43095,0.53356 1.24154,0.53356 0.83111,0 1.78535,-0.5746 0.9645,-0.5746 1.621182,-1.74431 l 0.24626,1.35441 q -0.34886,0.41042 -0.913202,0.92345 -0.55407,0.51304 -1.29284,0.89268 -0.72851,0.37965 -1.61092,0.37965 -0.99529,0 -1.65197,-0.44121 -0.65668,-0.44121 -0.98502,-1.11841 -0.31808,-0.68747 -0.31808,-1.41597 z m 8.085392,2.13421 q -0.0718,0.19495 -0.25651,0.41043 -0.1847,0.21547 -0.42069,0.32834 -0.48225,-0.19495 -0.75929,-0.52329 -0.27704,-0.32835 -0.40016,-0.75929 -0.11287,-0.44121 -0.11287,-0.97476 v -4.78147 q 0,-1.16971 -0.513032,-1.65196 -0.51304,-0.48225 -1.37493,-0.48225 -0.84137,0 -1.69301,0.24625 -0.85163,0.24626 -1.67248,0.61564 -0.19496,-0.17443 -0.35913,-0.50277 -0.15391,-0.3386 -0.15391,-0.6259 0.50277,-0.22573 1.1492,-0.44121 0.65668,-0.22573 1.38518,-0.36938 0.72851,-0.15391 1.44676,-0.15391 1.07736,0 1.775092,0.40017 0.70798,0.3899 1.04658,1.14919 0.33861,0.75929 0.33861,1.85718 v 4.22738 q 0,0.65668 0.0923,1.15946 0.10261,0.50277 0.48225,0.87215 z"
           id="path293" />
        <path
           d="m 105.65625,49.799 q 0.49251,0 0.6259,0.25652 0.13339,0.24625 0.13339,0.7285 V 59.916 q -0.27704,0.0616 -0.69772,0.0616 -0.44121,0 -0.71825,-0.0616 V 49.92213 L 105.1227,49.799 Z m 6.95672,8.20852 q 0,0.49251 0.041,0.94398 0.0513,0.44121 0.18469,0.77981 -0.15391,0.13339 -0.41043,0.21547 -0.24625,0.0923 -0.49251,0.0923 -0.40017,0 -0.5746,-0.236 -0.16417,-0.23599 -0.16417,-0.70798 v -5.76649 q 0,-1.2518 -0.31808,-1.80587 -0.30782,-0.55408 -1.22101,-0.55408 -0.64643,0 -1.36467,0.29756 -0.70799,0.29756 -1.32362,0.79007 -0.60538,0.49251 -0.94398,1.08763 v -1.5391 q 0.66694,-0.85163 1.75457,-1.38518 1.08763,-0.54382 2.20604,-0.54382 0.97476,0 1.54935,0.44121 0.5746,0.43095 0.82086,1.15945 0.25651,0.71825 0.25651,1.58014 z"
           id="path295" />
      </g>
      <path
         d="m 43.952141,112.3307 q 0.492511,0 0.6259,0.25652 0.133388,0.24625 0.133388,0.7285 v 9.13198 q -0.277037,0.0616 -0.697724,0.0616 -0.441208,0 -0.718245,-0.0616 v -9.97335 l 0.123127,-0.14365 z m 4.945633,3.52966 q 0,-1.2518 -0.31808,-1.80587 -0.307819,-0.55408 -1.097889,-0.55408 -0.554075,0 -1.190236,0.30782 -0.625899,0.30782 -1.190235,0.88242 -0.564336,0.56433 -0.902937,1.33388 v -1.62118 q 0.420686,-0.68746 0.995283,-1.17997 0.584857,-0.49252 1.241538,-0.74903 0.656682,-0.26678 1.313364,-0.26678 0.892676,0 1.457012,0.43095 0.574596,0.43095 0.841373,1.14919 0.266777,0.71825 0.266777,1.58014 v 7.07985 q -0.277038,0.0616 -0.697724,0.0616 -0.441208,0 -0.718246,-0.0616 z m 5.622836,-0.0205 q 0,-1.2518 -0.31808,-1.79561 -0.307819,-0.54382 -1.097889,-0.54382 -0.543815,0 -1.169714,0.2873 -0.6259,0.2873 -1.200496,0.85164 -0.574597,0.56433 -0.974762,1.38518 v -1.97004 q 0.533554,-0.55408 1.118411,-0.9645 0.584857,-0.42069 1.210756,-0.64642 0.6259,-0.236 1.282582,-0.236 0.892676,0 1.457012,0.43095 0.564336,0.43095 0.831112,1.14919 0.277038,0.71825 0.277038,1.58014 v 5.17137 q 0,0.49251 0.04104,0.94398 0.0513,0.44121 0.184691,0.77981 -0.153909,0.13339 -0.410426,0.21547 -0.246255,0.0923 -0.492511,0.0923 -0.400165,0 -0.574596,-0.236 -0.164171,-0.23599 -0.164171,-0.70798 z"
         id="path283-5"
         style="font-weight:300;font-size:20.5213px;font-family:'Signika Negative';-inkscape-font-specification:'Signika Negative Light';stroke-width:1.71011" />
      <path
         d="m 46.762307,163.00391 -11.225565,-9.83195 v -3.47009 l 11.225565,-10.12109 v 3.66287 l -8.915611,8.19327 8.915611,7.95229 z"
         style="font-weight:300;font-size:20.5213px;font-family:Oswald;-inkscape-font-specification:'Oswald Light';stroke-width:3.68288"
         id="path435-7-0" />
      <path
         d="m 51.649517,163.00391 11.225562,-9.83195 v -3.47009 L 51.649517,139.58078 v 3.66287 l 8.915608,8.19327 -8.915608,7.95229 z"
         style="font-weight:300;font-size:20.5213px;font-family:Oswald;-inkscape-font-specification:'Oswald Light';stroke-width:3.68288"
         id="path435-6-5-9" />
      <path
         d="M 43.350959,129.10075 32.125394,119.2688 v -3.47009 l 11.225565,-10.12109 v 3.66287 l -8.915611,8.19327 8.915611,7.95229 z"
         style="font-weight:300;font-size:20.5213px;font-family:Oswald;-inkscape-font-specification:'Oswald Light';stroke-width:3.68288"
         id="path435-7-0-6" />
      <path
         d="M 56.106812,129.10075 67.33237,119.2688 v -3.47009 L 56.106812,105.67762 v 3.66287 l 8.915608,8.19327 -8.915608,7.95229 z"
         style="font-weight:300;font-size:20.5213px;font-family:Oswald;-inkscape-font-specification:'Oswald Light';stroke-width:3.68288"
         id="path435-6-5-9-0" />
      <path
         d="M 44.605073,66.56905 33.379508,56.7371 V 53.26701 L 44.605073,43.14592 v 3.66287 l -8.915611,8.19327 8.915611,7.95229 z"
         style="font-weight:300;font-size:20.5213px;font-family:Oswald;-inkscape-font-specification:'Oswald Light';stroke-width:3.68288"
         id="path435-7-0-6-6" />
      <path
         d="m 112.82917,66.569051 11.22556,-9.831952 v -3.47009 l -11.22556,-10.12109 v 3.66287 l 8.91561,8.19327 -8.91561,7.952292 z"
         style="font-weight:300;font-size:20.5213px;font-family:Oswald;-inkscape-font-specification:'Oswald Light';stroke-width:3.68288"
         id="path435-6-5-9-0-2" />
    </g>
  </g>
</svg>
