<?xml version="1.0" encoding="UTF-8" standalone="no"?>
<!-- Created with Inkscape (http://www.inkscape.org/) -->

<svg
   width="18.478012mm"
   height="6.0707936mm"
   viewBox="0 0 18.478012 6.0707936"
   version="1.1"
   id="svg1530"
   inkscape:version="1.2.1 (9c6d41e410, 2022-07-14)"
   sodipodi:docname="glasses.svg"
   xmlns:inkscape="http://www.inkscape.org/namespaces/inkscape"
   xmlns:sodipodi="http://sodipodi.sourceforge.net/DTD/sodipodi-0.dtd"
   xmlns="http://www.w3.org/2000/svg"
   xmlns:svg="http://www.w3.org/2000/svg">
  <sodipodi:namedview
     id="namedview1532"
     pagecolor="#ffffff"
     bordercolor="#000000"
     borderopacity="0.25"
     inkscape:showpageshadow="2"
     inkscape:pageopacity="0.0"
     inkscape:pagecheckerboard="0"
     inkscape:deskcolor="#d1d1d1"
     inkscape:document-units="mm"
     showgrid="false"
     inkscape:zoom="0.46235269"
     inkscape:cx="68.129807"
     inkscape:cy="-37.849893"
     inkscape:window-width="1366"
     inkscape:window-height="684"
     inkscape:window-x="0"
     inkscape:window-y="159"
     inkscape:window-maximized="1"
     inkscape:current-layer="layer1" />
  <defs
     id="defs1527" />
  <g
     inkscape:label="Capa 1"
     inkscape:groupmode="layer"
     id="layer1"
     transform="translate(-86.899725,-204.69293)">
    <g
       id="g453"
       transform="matrix(0.35413592,-0.02865154,-0.03458146,-0.29340975,163.00039,278.58908)">
      <path
         id="rect377"
         style="fill:#ffffff;stroke-width:0.75"
         d="m -147.74211,264.59799 c -0.35457,0.002 -0.67621,-0.002 -0.94775,-0.007 -0.5431,-0.0105 -0.88477,-0.0278 -0.88477,-0.0278 -0.22775,-0.004 -0.46151,-0.0148 -0.70019,-0.0293 -0.23868,-0.0145 -0.48158,-0.0332 -0.7295,-0.0571 -0.24791,-0.0239 -0.50041,-0.0524 -0.75585,-0.085 -0.25545,-0.0326 -0.51509,-0.0693 -0.77637,-0.10986 -0.52256,-0.0811 -1.05512,-0.1772 -1.59082,-0.28565 -0.5357,-0.10845 -1.07462,-0.22889 -1.60987,-0.35889 -0.26775,-0.065 -0.52084,-0.13649 -0.76025,-0.21386 -0.23941,-0.0774 -0.46479,-0.16144 -0.67529,-0.25049 -0.2105,-0.0891 -0.40637,-0.18414 -0.5874,-0.28418 -0.18104,-0.10005 -0.34705,-0.2046 -0.49805,-0.31494 -0.151,-0.11035 -0.28682,-0.22575 -0.40723,-0.34571 -0.0602,-0.06 -0.11601,-0.12085 -0.16846,-0.1831 -0.0524,-0.0623 -0.10185,-0.126 -0.14648,-0.19043 -0.0446,-0.0644 -0.0848,-0.12976 -0.12158,-0.19629 -0.0367,-0.0665 -0.0694,-0.1336 -0.0982,-0.20215 -0.0288,-0.0685 -0.054,-0.139 -0.0747,-0.20947 -0.0207,-0.0705 -0.0372,-0.14156 -0.0498,-0.21387 -0.0254,-0.14462 -0.0431,-0.30311 -0.0527,-0.47607 -0.01,-0.17297 -0.0115,-0.35995 -0.003,-0.56543 0.009,-0.20549 0.0278,-0.42872 0.0571,-0.6709 0.0293,-0.24218 0.0691,-0.50356 0.12158,-0.78662 0.0525,-0.28306 0.11669,-0.58741 0.19482,-0.91553 0.0781,-0.32812 0.17059,-0.68026 0.27686,-1.05762 0.10627,-0.37736 0.22638,-0.78065 0.36328,-1.21142 0.1369,-0.43078 0.28996,-0.88858 0.45996,-1.37696 0.0849,-0.24406 0.17993,-0.47682 0.28272,-0.69726 0.10278,-0.22044 0.21328,-0.42902 0.33252,-0.62695 0.11923,-0.19794 0.24658,-0.3845 0.38085,-0.56104 0.13428,-0.17654 0.27542,-0.34324 0.42334,-0.49951 0.14793,-0.15627 0.30272,-0.30234 0.4629,-0.43945 0.16017,-0.13711 0.32556,-0.26473 0.49658,-0.38379 0.17102,-0.11907 0.34687,-0.23038 0.52734,-0.33252 0.18047,-0.10214 0.36666,-0.19492 0.55518,-0.28125 0.18851,-0.0863 0.38052,-0.16568 0.57568,-0.23731 0.19516,-0.0716 0.39285,-0.13677 0.59326,-0.19482 0.20041,-0.0581 0.40365,-0.10969 0.60791,-0.15527 0.20426,-0.0456 0.40999,-0.0844 0.6167,-0.11866 0.20671,-0.0342 0.41334,-0.0639 0.6211,-0.0879 0.20775,-0.024 0.41662,-0.0422 0.62402,-0.0571 0.2074,-0.0149 0.41398,-0.0253 0.61963,-0.0322 0.20565,-0.007 0.4098,-0.0103 0.6123,-0.0103 0.20256,0 0.40145,0.004 0.59619,0.0132 0.19474,0.009 0.38584,0.0231 0.57276,0.041 0.18691,0.0179 0.36876,0.0397 0.54785,0.0659 0.17909,0.0262 0.35462,0.0568 0.52588,0.0908 0.17125,0.034 0.33902,0.0714 0.50244,0.11279 0.16342,0.0414 0.32342,0.0864 0.479,0.13477 0.15558,0.0483 0.30637,0.10045 0.45411,0.15527 0.14773,0.0548 0.29223,0.11346 0.43212,0.17432 0.13989,0.0609 0.27519,0.12399 0.40723,0.19043 0.13204,0.0664 0.26107,0.13643 0.38525,0.20801 0.12419,0.0716 0.24402,0.14493 0.36036,0.22119 0.11633,0.0763 0.22844,0.15534 0.33691,0.23584 0.10847,0.0805 0.21287,0.16181 0.31348,0.24609 0.10061,0.0843 0.19729,0.17166 0.29004,0.25928 0.0927,0.0876 0.18172,0.1761 0.2666,0.2666 0.0849,0.0905 0.16616,0.18245 0.24316,0.27539 0.0616,0.0742 0.12218,0.15681 0.18311,0.24609 0.0609,0.0893 0.12169,0.18459 0.18164,0.28711 0.1199,0.20505 0.23758,0.4358 0.35156,0.68262 0.11398,0.24682 0.22422,0.51 0.32959,0.78369 0.10537,0.27369 0.20623,0.55663 0.30029,0.84229 0.0941,0.28565 0.18215,0.57421 0.26221,0.85693 0.0801,0.28272 0.15197,0.55983 0.21533,0.82471 0.0634,0.26488 0.11717,0.51786 0.16113,0.75 0.044,0.23214 0.0777,0.44392 0.0996,0.62842 0.0216,0.1845 0.0473,0.39837 0.0703,0.63427 0.023,0.23591 0.0439,0.49383 0.0586,0.76465 0.0146,0.27082 0.0226,0.55452 0.019,0.84375 -0.002,0.14462 -0.006,0.2904 -0.0147,0.43653 -0.008,0.14612 -0.0208,0.29241 -0.0366,0.43798 -0.0158,0.14558 -0.0353,0.29063 -0.06,0.4336 -0.0247,0.14296 -0.0546,0.28505 -0.0894,0.42334 -0.0348,0.13829 -0.074,0.27274 -0.12012,0.40429 -0.0461,0.13156 -0.0981,0.25957 -0.15674,0.38233 -0.0587,0.12275 -0.12529,0.24113 -0.19775,0.35303 -0.0725,0.11189 -0.15129,0.21743 -0.23877,0.3164 -0.0875,0.099 -0.18339,0.19141 -0.28711,0.27539 -0.10371,0.084 -0.21573,0.16012 -0.33691,0.22705 -0.12113,0.0669 -0.25631,0.12787 -0.40283,0.18457 -0.14653,0.0567 -0.30416,0.10799 -0.47168,0.15528 -0.16753,0.0473 -0.34469,0.0902 -0.52881,0.1289 -0.18413,0.0387 -0.37496,0.0731 -0.57129,0.10401 -0.19634,0.0308 -0.3979,0.0582 -0.60205,0.082 -0.20415,0.0238 -0.4106,0.0453 -0.61817,0.063 -0.41513,0.0353 -0.83242,0.0579 -1.23486,0.0732 -0.40244,0.0153 -0.79093,0.0231 -1.14551,0.0249 z" />
      <path
         id="path435"
         style="fill:#ffffff;stroke-width:0.75"
         d="m -178.11857,264.62582 c -0.35455,-0.002 -0.74307,-0.008 -1.14551,-0.0234 -0.40244,-0.0154 -0.81969,-0.0394 -1.23486,-0.0747 -0.20759,-0.0177 -0.41399,-0.0377 -0.61817,-0.0615 -0.20418,-0.0238 -0.40567,-0.0512 -0.60205,-0.082 -0.19638,-0.0308 -0.38856,-0.0654 -0.57275,-0.104 -0.18419,-0.0386 -0.36121,-0.0817 -0.52881,-0.12891 -0.16761,-0.0473 -0.32506,-0.0986 -0.47168,-0.15527 -0.14663,-0.0567 -0.28158,-0.11916 -0.40283,-0.18603 -0.12119,-0.0669 -0.2332,-0.14166 -0.33692,-0.22559 -0.10371,-0.0839 -0.19963,-0.17647 -0.28711,-0.27539 -0.0875,-0.0989 -0.16631,-0.20455 -0.23877,-0.31641 -0.0725,-0.11185 -0.13908,-0.2303 -0.19775,-0.35302 -0.0587,-0.12273 -0.11062,-0.24933 -0.15674,-0.38086 -0.0461,-0.13153 -0.0853,-0.26749 -0.12012,-0.40577 -0.0348,-0.13827 -0.0647,-0.27891 -0.0894,-0.42187 -0.0247,-0.14296 -0.0442,-0.28802 -0.0601,-0.43359 -0.0158,-0.14558 -0.0284,-0.29186 -0.0366,-0.43799 -0.008,-0.14614 -0.0114,-0.29189 -0.0132,-0.43653 -0.003,-0.28926 0.004,-0.57433 0.0191,-0.84521 0.0148,-0.27088 0.0353,-0.52865 0.0586,-0.76465 0.0232,-0.236 0.0484,-0.44965 0.0703,-0.63428 0.0217,-0.1845 0.0557,-0.39625 0.0996,-0.62841 0.0439,-0.23217 0.0978,-0.48508 0.16114,-0.75 0.0633,-0.26493 0.13531,-0.54195 0.21533,-0.82471 0.08,-0.28276 0.16821,-0.57125 0.26221,-0.85694 0.094,-0.28568 0.19502,-0.56858 0.30029,-0.84228 0.10526,-0.2737 0.21431,-0.53836 0.32812,-0.78516 0.11382,-0.24679 0.23193,-0.47617 0.35157,-0.68115 0.0598,-0.10249 0.1194,-0.19933 0.18017,-0.28857 0.0608,-0.0892 0.1232,-0.17051 0.18457,-0.24463 0.0771,-0.0929 0.15818,-0.18489 0.24317,-0.27539 0.085,-0.0905 0.17376,-0.18045 0.2666,-0.26807 0.0928,-0.0876 0.18934,-0.17353 0.29004,-0.25781 0.10069,-0.0843 0.20493,-0.16706 0.31347,-0.24756 0.10855,-0.0805 0.22053,-0.15811 0.33692,-0.23438 0.11639,-0.0763 0.23758,-0.15107 0.36181,-0.22265 0.12424,-0.0716 0.25171,-0.1401 0.38379,-0.20654 0.13208,-0.0665 0.26877,-0.13104 0.40869,-0.1919 0.13993,-0.0609 0.28291,-0.11803 0.43067,-0.17285 0.14776,-0.0548 0.29997,-0.10693 0.45556,-0.15527 0.1556,-0.0483 0.31558,-0.0934 0.47901,-0.13477 0.16343,-0.0414 0.32971,-0.0788 0.50098,-0.11279 0.17126,-0.034 0.34678,-0.0646 0.52587,-0.0908 0.17909,-0.0262 0.3624,-0.048 0.54932,-0.0659 0.18692,-0.0179 0.37801,-0.0318 0.57275,-0.041 0.19475,-0.009 0.39363,-0.0132 0.5962,-0.0132 0.2025,0 0.40665,0.002 0.6123,0.009 0.20565,0.007 0.41223,0.0188 0.61963,0.0337 0.2074,0.0149 0.4148,0.0331 0.62256,0.0571 0.20775,0.024 0.41585,0.0537 0.62256,0.0879 0.2067,0.0342 0.41244,0.0731 0.6167,0.11865 0.20425,0.0456 0.4075,0.0972 0.60791,0.15528 0.20041,0.0581 0.39809,0.12319 0.59326,0.19482 0.19516,0.0716 0.38717,0.14951 0.57568,0.23584 0.18852,0.0863 0.37324,0.18057 0.55371,0.28271 0.18047,0.10214 0.35633,0.21199 0.52735,0.33106 0.17102,0.11907 0.33787,0.24814 0.49804,0.38525 0.16018,0.13711 0.31497,0.28319 0.46289,0.43946 0.14793,0.15627 0.28907,0.3215 0.42334,0.49804 0.13428,0.17655 0.26163,0.36457 0.38086,0.5625 0.11923,0.19794 0.22974,0.40652 0.33252,0.62696 0.10279,0.22044 0.19778,0.45173 0.28272,0.6958 0.17,0.48825 0.32162,0.94771 0.45849,1.37841 0.13688,0.43071 0.25851,0.83264 0.36475,1.20997 0.10624,0.37732 0.19728,0.7295 0.27539,1.05761 0.0781,0.32812 0.14382,0.63247 0.19629,0.91553 0.0525,0.28306 0.0923,0.54445 0.12158,0.78662 0.0293,0.24218 0.047,0.46545 0.0557,0.6709 0.009,0.20545 0.008,0.394 -10e-4,0.56689 -0.009,0.1729 -0.0276,0.33011 -0.0527,0.47461 -0.0126,0.0724 -0.0291,0.14335 -0.0498,0.21387 -0.0207,0.0705 -0.0459,0.14089 -0.0747,0.20947 -0.0288,0.0686 -0.0614,0.13559 -0.0981,0.20215 -0.0367,0.0666 -0.0769,0.13184 -0.12158,0.19629 -0.0446,0.0645 -0.0926,0.12817 -0.14502,0.19043 -0.0525,0.0623 -0.10971,0.12313 -0.16992,0.18311 -0.12043,0.11996 -0.2562,0.23536 -0.40723,0.3457 -0.15103,0.11034 -0.31697,0.21635 -0.49805,0.31641 -0.18108,0.10005 -0.37683,0.19509 -0.5874,0.28418 -0.21057,0.0891 -0.43579,0.17158 -0.67529,0.24902 -0.2395,0.0774 -0.49385,0.14874 -0.76172,0.21387 -0.53525,0.13025 -1.07416,0.25193 -1.60986,0.36035 -0.53571,0.10842 -1.06826,0.2047 -1.59082,0.28564 -0.26129,0.0405 -0.51946,0.0759 -0.77491,0.1084 -0.25544,0.0325 -0.50794,0.0611 -0.75586,0.085 -0.24791,0.0239 -0.49081,0.044 -0.72949,0.0586 -0.23868,0.0145 -0.47244,0.0248 -0.70019,0.0293 0,0 -0.34174,0.0175 -0.88477,0.0278 -0.27152,0.005 -0.5932,0.008 -0.94775,0.006 z" />
      <path
         id="path433"
         style="fill:#333333;stroke-width:0.75"
         d="m -179.96135,266.09506 c -0.1665,0 -0.42961,-0.016 -0.76172,-0.0439 -0.3321,-0.0279 -0.73359,-0.0674 -1.1792,-0.11573 -0.8912,-0.0967 -1.95718,-0.2266 -2.98974,-0.36035 -1.03256,-0.13375 -2.03199,-0.27113 -2.78906,-0.38232 -0.37854,-0.0556 -0.69574,-0.10478 -0.92725,-0.14356 -0.23151,-0.0388 -0.37632,-0.0675 -0.40869,-0.082 l 0.375,-3.50097 c 0,0 0.0795,0.009 0.20508,-0.0117 0.0628,-0.0104 0.13807,-0.0285 0.21972,-0.0586 0.0816,-0.0301 0.17005,-0.0737 0.26221,-0.1333 0.0461,-0.0298 0.0935,-0.0635 0.14063,-0.10254 0.0471,-0.039 0.0935,-0.0824 0.14062,-0.13183 0.0472,-0.0494 0.0945,-0.10449 0.14063,-0.16553 0.0461,-0.061 0.0922,-0.12827 0.13623,-0.20215 0.0441,-0.0739 0.0865,-0.15377 0.12744,-0.2417 0.0409,-0.0879 0.0804,-0.18391 0.11718,-0.28711 0.0368,-0.10319 0.071,-0.2143 0.10254,-0.33398 0.0316,-0.11968 0.0597,-0.24788 0.085,-0.38526 0.0509,-0.27487 0.12304,-0.58605 0.21241,-0.92431 0.0894,-0.33826 0.19549,-0.70339 0.3164,-1.08399 0.12092,-0.38059 0.25586,-0.77731 0.40137,-1.1792 0.14551,-0.40188 0.30266,-0.8093 0.46582,-1.21142 0.16316,-0.40213 0.33298,-0.79935 0.50684,-1.18067 0.17385,-0.38132 0.3512,-0.74598 0.52881,-1.08544 0.0888,-0.16974 0.17816,-0.33394 0.2666,-0.48926 0.0884,-0.15533 0.17647,-0.30264 0.26367,-0.44092 0.0872,-0.13829 0.17271,-0.26664 0.25781,-0.38525 0.0851,-0.11862 0.16983,-0.22742 0.25195,-0.32373 0.0851,-0.0996 0.17597,-0.19617 0.27247,-0.29151 0.0965,-0.0953 0.19757,-0.18893 0.30468,-0.27978 0.10711,-0.0909 0.21994,-0.17904 0.33692,-0.26514 0.11698,-0.0861 0.23864,-0.17087 0.36474,-0.25195 0.1261,-0.0811 0.25664,-0.15858 0.39112,-0.23438 0.13447,-0.0758 0.27245,-0.14949 0.41455,-0.21973 0.14209,-0.0702 0.28902,-0.13773 0.43799,-0.20214 0.14896,-0.0644 0.30047,-0.12625 0.45556,-0.18457 0.1551,-0.0583 0.31268,-0.11356 0.47315,-0.16553 0.16047,-0.052 0.32416,-0.0997 0.48925,-0.14502 0.1651,-0.0454 0.33201,-0.0875 0.50098,-0.12598 0.16897,-0.0385 0.33913,-0.0742 0.51123,-0.10547 0.1721,-0.0313 0.34554,-0.0581 0.52002,-0.082 0.17448,-0.0239 0.35123,-0.0439 0.52734,-0.0601 0.17612,-0.0162 0.35182,-0.0284 0.52881,-0.0366 0.177,-0.008 0.35462,-0.0132 0.53174,-0.0132 0.3545,0 0.69467,0.006 1.02246,0.0176 0.3278,0.0118 0.64248,0.0301 0.94629,0.0557 0.30381,0.0256 0.59636,0.0584 0.87891,0.0996 0.28254,0.0412 0.55631,0.0906 0.82031,0.14941 0.264,0.0588 0.51941,0.12678 0.76758,0.20508 0.24817,0.0783 0.48857,0.1669 0.72363,0.2666 0.23506,0.0997 0.46381,0.21097 0.68848,0.33399 0.22467,0.12302 0.44511,0.25751 0.66211,0.40576 0.10856,0.0742 0.21707,0.15281 0.32373,0.23584 0.10666,0.083 0.21185,0.1707 0.3164,0.26221 0.10456,0.0915 0.2083,0.18749 0.31055,0.28711 0.10225,0.0996 0.20348,0.20318 0.30322,0.31054 0.1995,0.21473 0.39327,0.44496 0.58155,0.68848 0.18828,0.24353 0.37091,0.5011 0.54638,0.77051 0.17547,0.2694 0.34431,0.54991 0.50537,0.84228 0.16106,0.29237 0.31345,0.59579 0.4585,0.90821 0.14506,0.31241 0.28271,0.63432 0.41016,0.96386 0.12745,0.32954 0.24477,0.667 0.35302,1.01075 0.216,0.6835 0.38156,1.26704 0.5376,1.75781 0.078,0.24538 0.15378,0.46795 0.23291,0.66797 0.0396,0.10001 0.0797,0.19369 0.12158,0.28271 0.0419,0.089 0.0849,0.17222 0.13038,0.25049 0.0455,0.0783 0.0931,0.15198 0.14355,0.21973 0.0505,0.0677 0.10436,0.13004 0.16113,0.1875 0.0568,0.0575 0.11576,0.10932 0.18018,0.15674 0.0644,0.0474 0.13312,0.0898 0.20654,0.12744 0.0734,0.0376 0.15209,0.0701 0.23584,0.0981 0.0838,0.028 0.17264,0.0516 0.26807,0.0703 0.0954,0.0187 0.1977,0.0329 0.30615,0.0425 0.10845,0.01 0.22289,0.0154 0.3457,0.0161 v -0.0293 c 0.12444,0 0.24172,-0.004 0.35157,-0.0132 0.10984,-0.009 0.21246,-0.0214 0.30908,-0.0395 0.0966,-0.0181 0.18772,-0.0413 0.27246,-0.0688 0.0847,-0.0275 0.16307,-0.0595 0.2373,-0.0967 0.0742,-0.0372 0.14439,-0.0803 0.20948,-0.12744 0.0651,-0.0471 0.1258,-0.098 0.1831,-0.15528 0.0573,-0.0572 0.11026,-0.11987 0.16113,-0.1875 0.0509,-0.0676 0.0992,-0.14147 0.14502,-0.21972 0.0458,-0.0782 0.0897,-0.16138 0.13184,-0.25049 0.0421,-0.0891 0.0833,-0.18397 0.12305,-0.28418 0.0795,-0.20043 0.15456,-0.42315 0.23291,-0.66943 0.15668,-0.49257 0.32181,-1.07911 0.53906,-1.76661 0.10837,-0.3435 0.22697,-0.67987 0.35449,-1.00927 0.12752,-0.32941 0.26508,-0.65151 0.41016,-0.96387 0.14508,-0.31236 0.29744,-0.61583 0.45849,-0.9082 0.16105,-0.29237 0.32994,-0.57285 0.50537,-0.84229 0.17544,-0.26944 0.35815,-0.52695 0.54639,-0.77051 0.18824,-0.24355 0.38209,-0.47374 0.58154,-0.68847 0.0997,-0.10737 0.20099,-0.21094 0.30323,-0.31055 0.10223,-0.0996 0.206,-0.19563 0.31054,-0.28711 0.10455,-0.0915 0.20976,-0.17775 0.31641,-0.26074 0.10665,-0.083 0.21517,-0.16172 0.32373,-0.23584 0.217,-0.14838 0.43597,-0.28414 0.66065,-0.40723 0.22467,-0.12309 0.45487,-0.23426 0.68994,-0.33398 0.23506,-0.0997 0.47546,-0.18831 0.72363,-0.2666 0.24817,-0.0783 0.50358,-0.1463 0.76758,-0.20508 0.264,-0.0588 0.5363,-0.10822 0.81885,-0.14942 0.28254,-0.0412 0.57509,-0.0741 0.8789,-0.0996 0.30381,-0.0255 0.61996,-0.0439 0.94776,-0.0557 0.32779,-0.0118 0.66796,-0.0176 1.02246,-0.0176 0.17712,0 0.35327,0.005 0.53027,0.0132 0.177,0.008 0.35415,0.0204 0.53027,0.0366 0.17613,0.0162 0.35139,0.0362 0.52588,0.0601 0.1745,0.0239 0.34791,0.0522 0.52002,0.0835 0.17212,0.0313 0.34372,0.0656 0.5127,0.10401 0.16898,0.0384 0.33588,0.0806 0.50097,0.12597 0.1651,0.0453 0.3288,0.0945 0.48926,0.14649 0.16047,0.052 0.31807,0.1072 0.47315,0.16552 0.15507,0.0583 0.30662,0.11869 0.45556,0.18311 0.14894,0.0644 0.29447,0.13191 0.43653,0.20215 0.14205,0.0702 0.2816,0.14393 0.41601,0.21972 0.13441,0.0758 0.26363,0.1533 0.38965,0.23438 0.12602,0.0811 0.24787,0.16585 0.36475,0.25195 0.11687,0.0861 0.22993,0.17428 0.33691,0.26514 0.10698,0.0909 0.20835,0.18444 0.30469,0.27978 0.0963,0.0953 0.18752,0.19195 0.27246,0.29151 0.0822,0.0962 0.16527,0.20516 0.25049,0.32373 0.0852,0.11857 0.17197,0.247 0.25927,0.38525 0.0873,0.13825 0.17514,0.28562 0.26368,0.44092 0.0885,0.1553 0.17771,0.31954 0.2666,0.48926 0.17778,0.33944 0.35628,0.70412 0.53027,1.08545 0.17399,0.38133 0.34359,0.77851 0.50684,1.18066 0.16325,0.40216 0.3188,0.8095 0.46435,1.21143 0.14556,0.40192 0.28193,0.79856 0.40283,1.1792 0.12091,0.38063 0.22711,0.7457 0.31641,1.08398 0.0893,0.33828 0.16165,0.64944 0.2124,0.92432 0.0253,0.13744 0.0534,0.26552 0.085,0.38525 0.0316,0.11973 0.0658,0.23074 0.10254,0.33399 0.0368,0.10324 0.0763,0.19914 0.11719,0.28711 0.0409,0.088 0.0834,0.16925 0.12744,0.24316 0.044,0.0739 0.0901,0.14108 0.13623,0.20215 0.0461,0.0611 0.092,0.11609 0.13916,0.16553 0.0472,0.0494 0.095,0.0928 0.14209,0.13183 0.0471,0.039 0.0945,0.0727 0.14063,0.10254 0.0922,0.0597 0.18055,0.10314 0.2622,0.1333 0.0817,0.0302 0.15548,0.0467 0.21827,0.0571 0.12557,0.0208 0.20507,0.0117 0.20507,0.0117 l 0.37793,3.50098 c -0.0325,0.0145 -0.17852,0.0433 -0.41015,0.082 -0.23163,0.0388 -0.5486,0.088 -0.92725,0.14355 -0.75729,0.11119 -1.75784,0.24858 -2.79053,0.38233 -1.03268,0.13375 -2.09857,0.26366 -2.98974,0.36035 -0.44559,0.0483 -0.84716,0.0893 -1.1792,0.11718 -0.33204,0.0279 -0.59388,0.0425 -0.76025,0.0425 -0.33225,0 -0.9417,9.3e-4 -1.71387,-0.0117 -0.38609,-0.006 -0.81234,-0.0165 -1.26563,-0.0308 -0.45328,-0.0142 -0.93332,-0.0333 -1.42529,-0.0586 -0.49197,-0.0253 -0.9964,-0.0571 -1.49854,-0.0967 -0.50213,-0.0396 -1.00157,-0.0866 -1.48535,-0.14355 -0.24188,-0.0285 -0.47996,-0.0589 -0.71191,-0.0923 -0.23195,-0.0334 -0.45831,-0.0696 -0.67676,-0.1084 -0.21845,-0.0388 -0.42996,-0.08 -0.63135,-0.12451 -0.20138,-0.0445 -0.39347,-0.0915 -0.57422,-0.14209 -0.34424,-0.0964 -0.70545,-0.1853 -1.07666,-0.26514 -0.3712,-0.0798 -0.75103,-0.15066 -1.13085,-0.21533 -0.37982,-0.0647 -0.76077,-0.12344 -1.13086,-0.17431 -0.3701,-0.0509 -0.73024,-0.0949 -1.07227,-0.1333 -0.68406,-0.0769 -1.29312,-0.13019 -1.75488,-0.16553 -0.46177,-0.0353 -0.7759,-0.0524 -0.86865,-0.0571 v 0.0264 c 0,0 -0.26113,0.0122 -0.69727,0.0439 -0.43614,0.0318 -1.04696,0.0821 -1.74902,0.1582 -0.35103,0.038 -0.72476,0.0833 -1.11036,0.13477 -0.38559,0.0515 -0.78324,0.10934 -1.18212,0.17578 -0.39889,0.0665 -0.80003,0.14112 -1.19092,0.22412 -0.39089,0.083 -0.77217,0.17427 -1.13379,0.27539 -0.18081,0.0506 -0.3728,0.0991 -0.57422,0.14356 -0.20142,0.0445 -0.41141,0.0858 -0.62988,0.12451 -0.21847,0.0388 -0.44481,0.075 -0.67676,0.1084 -0.23196,0.0334 -0.47004,0.0638 -0.71192,0.0923 -0.48375,0.057 -0.98327,0.10401 -1.48535,0.14356 -0.50208,0.0396 -1.00663,0.0714 -1.49853,0.0967 -0.49191,0.0253 -0.97206,0.0444 -1.42529,0.0586 -0.45324,0.0142 -0.87956,0.0244 -1.26563,0.0308 -0.77214,0.0127 -1.38137,0.0117 -1.71387,0.0117 z m 1.84278,-1.46924 c 0.35455,0.002 0.67623,-6.7e-4 0.94775,-0.006 0.54303,-0.0104 0.88477,-0.0278 0.88477,-0.0278 0.22775,-0.005 0.46151,-0.0147 0.70019,-0.0293 0.23868,-0.0146 0.48158,-0.0347 0.72949,-0.0586 0.24792,-0.0239 0.50042,-0.0524 0.75586,-0.085 0.25545,-0.0325 0.51362,-0.0679 0.77491,-0.1084 0.52256,-0.0809 1.05511,-0.17722 1.59082,-0.28564 0.5357,-0.10842 1.07461,-0.2301 1.60986,-0.36035 0.26787,-0.0651 0.52222,-0.13643 0.76172,-0.21387 0.2395,-0.0774 0.46472,-0.15994 0.67529,-0.24902 0.21057,-0.0891 0.40632,-0.18413 0.5874,-0.28418 0.18108,-0.10006 0.34702,-0.20607 0.49805,-0.31641 0.15103,-0.11034 0.2868,-0.22574 0.40723,-0.3457 0.0602,-0.06 0.11746,-0.12085 0.16992,-0.18311 0.0524,-0.0623 0.10039,-0.12598 0.14502,-0.19043 0.0446,-0.0644 0.0848,-0.12973 0.12158,-0.19629 0.0367,-0.0666 0.0694,-0.13357 0.0981,-0.20215 0.0288,-0.0686 0.054,-0.13895 0.0747,-0.20947 0.0207,-0.0705 0.0372,-0.14149 0.0498,-0.21387 0.0251,-0.1445 0.0433,-0.30171 0.0527,-0.47461 0.009,-0.17289 0.0101,-0.36144 0.001,-0.56689 -0.009,-0.20545 -0.0263,-0.42872 -0.0557,-0.6709 -0.0293,-0.24217 -0.0691,-0.50356 -0.12158,-0.78662 -0.0525,-0.28306 -0.11818,-0.58741 -0.19629,-0.91553 -0.0781,-0.32811 -0.16915,-0.68029 -0.27539,-1.05761 -0.10624,-0.37733 -0.22787,-0.77926 -0.36475,-1.20997 -0.13687,-0.4307 -0.28849,-0.89016 -0.45849,-1.37841 -0.0849,-0.24407 -0.17993,-0.47536 -0.28272,-0.6958 -0.10278,-0.22044 -0.21329,-0.42902 -0.33252,-0.62696 -0.11923,-0.19793 -0.24658,-0.38595 -0.38086,-0.5625 -0.13427,-0.17654 -0.27541,-0.34177 -0.42334,-0.49804 -0.14792,-0.15627 -0.30271,-0.30235 -0.46289,-0.43946 -0.16017,-0.13711 -0.32702,-0.26618 -0.49804,-0.38525 -0.17102,-0.11907 -0.34688,-0.22892 -0.52735,-0.33106 -0.18047,-0.10214 -0.36519,-0.19638 -0.55371,-0.28271 -0.18851,-0.0863 -0.38052,-0.16421 -0.57568,-0.23584 -0.19517,-0.0716 -0.39285,-0.13677 -0.59326,-0.19482 -0.20041,-0.0581 -0.40366,-0.10969 -0.60791,-0.15528 -0.20426,-0.0456 -0.41,-0.0844 -0.6167,-0.11865 -0.20671,-0.0342 -0.41481,-0.0639 -0.62256,-0.0879 -0.20776,-0.024 -0.41516,-0.0422 -0.62256,-0.0571 -0.2074,-0.0149 -0.41398,-0.0268 -0.61963,-0.0337 -0.20565,-0.007 -0.4098,-0.009 -0.6123,-0.009 -0.20257,0 -0.40145,0.004 -0.5962,0.0132 -0.19474,0.009 -0.38583,0.0231 -0.57275,0.041 -0.18692,0.0179 -0.37023,0.0397 -0.54932,0.0659 -0.17909,0.0262 -0.35461,0.0568 -0.52587,0.0908 -0.17127,0.034 -0.33755,0.0714 -0.50098,0.11279 -0.16343,0.0414 -0.32341,0.0864 -0.47901,0.13477 -0.15559,0.0483 -0.3078,0.10044 -0.45556,0.15527 -0.14776,0.0548 -0.29074,0.11199 -0.43067,0.17285 -0.13992,0.0609 -0.27661,0.12545 -0.40869,0.1919 -0.13208,0.0664 -0.25955,0.13496 -0.38379,0.20654 -0.12423,0.0716 -0.24542,0.14639 -0.36181,0.22265 -0.11639,0.0763 -0.22837,0.15388 -0.33692,0.23438 -0.10854,0.0805 -0.21278,0.16328 -0.31347,0.24756 -0.1007,0.0843 -0.1972,0.17019 -0.29004,0.25781 -0.0928,0.0876 -0.18162,0.17757 -0.2666,0.26807 -0.085,0.0905 -0.16604,0.18245 -0.24317,0.27539 -0.0614,0.0741 -0.1238,0.15539 -0.18457,0.24463 -0.0608,0.0892 -0.12035,0.18608 -0.18017,0.28857 -0.11964,0.20498 -0.23775,0.43436 -0.35157,0.68115 -0.11381,0.2468 -0.22286,0.51146 -0.32812,0.78516 -0.10527,0.2737 -0.20629,0.5566 -0.30029,0.84228 -0.094,0.28569 -0.1822,0.57418 -0.26221,0.85694 -0.08,0.28276 -0.15202,0.55978 -0.21533,0.82471 -0.0633,0.26492 -0.11725,0.51783 -0.16114,0.75 -0.0439,0.23216 -0.0779,0.44391 -0.0996,0.62841 -0.0219,0.18463 -0.0471,0.39828 -0.0703,0.63428 -0.0232,0.236 -0.0438,0.49377 -0.0586,0.76465 -0.0148,0.27088 -0.0225,0.55595 -0.0191,0.84521 0.002,0.14464 0.005,0.29039 0.0132,0.43653 0.008,0.14613 0.0208,0.29241 0.0366,0.43799 0.0158,0.14557 0.0354,0.29063 0.0601,0.43359 0.0247,0.14296 0.0546,0.2836 0.0894,0.42187 0.0348,0.13828 0.074,0.27424 0.12012,0.40577 0.0461,0.13153 0.0981,0.25813 0.15674,0.38086 0.0587,0.12272 0.1253,0.24117 0.19775,0.35302 0.0725,0.11186 0.1513,0.21749 0.23877,0.31641 0.0875,0.0989 0.1834,0.19146 0.28711,0.27539 0.10372,0.0839 0.21573,0.15871 0.33692,0.22559 0.12125,0.0669 0.2562,0.12937 0.40283,0.18603 0.14662,0.0567 0.30407,0.10802 0.47168,0.15527 0.1676,0.0473 0.34462,0.0903 0.52881,0.12891 0.18419,0.0386 0.37637,0.0732 0.57275,0.104 0.19638,0.0308 0.39787,0.0582 0.60205,0.082 0.20418,0.0238 0.41058,0.0439 0.61817,0.0615 0.41517,0.0353 0.83242,0.0593 1.23486,0.0747 0.40244,0.0154 0.79096,0.0216 1.14551,0.0234 z m 30.37646,-0.0278 c 0.35458,-0.002 0.74307,-0.01 1.14551,-0.0249 0.40244,-0.0153 0.81973,-0.0379 1.23486,-0.0732 0.20757,-0.0177 0.41402,-0.0391 0.61817,-0.063 0.20415,-0.0239 0.40571,-0.0512 0.60205,-0.082 0.19633,-0.0309 0.38716,-0.0653 0.57129,-0.10401 0.18412,-0.0387 0.36128,-0.0816 0.52881,-0.1289 0.16752,-0.0473 0.32515,-0.0986 0.47168,-0.15528 0.14652,-0.0567 0.2817,-0.11763 0.40283,-0.18457 0.12118,-0.0669 0.2332,-0.14306 0.33691,-0.22705 0.10372,-0.084 0.19964,-0.17642 0.28711,-0.27539 0.0875,-0.099 0.16631,-0.20451 0.23877,-0.3164 0.0725,-0.1119 0.13907,-0.23028 0.19775,-0.35303 0.0587,-0.12276 0.11062,-0.25077 0.15674,-0.38233 0.0461,-0.13155 0.0853,-0.266 0.12012,-0.40429 0.0348,-0.13829 0.0647,-0.28038 0.0894,-0.42334 0.0247,-0.14297 0.0442,-0.28802 0.06,-0.4336 0.0159,-0.14557 0.0284,-0.29186 0.0366,-0.43798 0.008,-0.14613 0.0129,-0.29191 0.0147,-0.43653 0.004,-0.28923 -0.004,-0.57293 -0.019,-0.84375 -0.0146,-0.27082 -0.0355,-0.52874 -0.0586,-0.76465 -0.0231,-0.2359 -0.0487,-0.44977 -0.0703,-0.63427 -0.0219,-0.1845 -0.0556,-0.39628 -0.0996,-0.62842 -0.044,-0.23214 -0.0978,-0.48512 -0.16113,-0.75 -0.0634,-0.26488 -0.13527,-0.54199 -0.21533,-0.82471 -0.0801,-0.28272 -0.16814,-0.57128 -0.26221,-0.85693 -0.0941,-0.28566 -0.19492,-0.5686 -0.30029,-0.84229 -0.10537,-0.27369 -0.21561,-0.53687 -0.32959,-0.78369 -0.11398,-0.24682 -0.23166,-0.47757 -0.35156,-0.68262 -0.06,-0.10252 -0.12072,-0.19782 -0.18164,-0.28711 -0.0609,-0.0893 -0.12155,-0.1719 -0.18311,-0.24609 -0.077,-0.0929 -0.15829,-0.18489 -0.24316,-0.27539 -0.0849,-0.0905 -0.17386,-0.17899 -0.2666,-0.2666 -0.0927,-0.0876 -0.18943,-0.175 -0.29004,-0.25928 -0.10061,-0.0843 -0.20501,-0.1656 -0.31348,-0.24609 -0.10847,-0.0805 -0.22058,-0.15958 -0.33691,-0.23584 -0.11634,-0.0763 -0.23617,-0.14962 -0.36036,-0.22119 -0.12418,-0.0716 -0.25321,-0.14157 -0.38525,-0.20801 -0.13204,-0.0664 -0.26734,-0.12957 -0.40723,-0.19043 -0.13989,-0.0609 -0.28439,-0.11949 -0.43212,-0.17432 -0.14774,-0.0548 -0.29853,-0.10693 -0.45411,-0.15527 -0.15558,-0.0483 -0.31558,-0.0934 -0.479,-0.13477 -0.16342,-0.0414 -0.33119,-0.0788 -0.50244,-0.11279 -0.17126,-0.034 -0.34679,-0.0646 -0.52588,-0.0908 -0.17909,-0.0262 -0.36094,-0.048 -0.54785,-0.0659 -0.18692,-0.0179 -0.37802,-0.0318 -0.57276,-0.041 -0.19474,-0.009 -0.39363,-0.0132 -0.59619,-0.0132 -0.2025,0 -0.40665,0.003 -0.6123,0.0103 -0.20565,0.007 -0.41223,0.0173 -0.61963,0.0322 -0.2074,0.0149 -0.41627,0.0331 -0.62402,0.0571 -0.20776,0.024 -0.41439,0.0537 -0.6211,0.0879 -0.20671,0.0342 -0.41244,0.0731 -0.6167,0.11866 -0.20426,0.0456 -0.4075,0.0972 -0.60791,0.15527 -0.20041,0.0581 -0.3981,0.12319 -0.59326,0.19482 -0.19516,0.0716 -0.38717,0.15098 -0.57568,0.23731 -0.18852,0.0863 -0.37471,0.17911 -0.55518,0.28125 -0.18047,0.10214 -0.35632,0.21345 -0.52734,0.33252 -0.17102,0.11906 -0.33641,0.24668 -0.49658,0.38379 -0.16018,0.13711 -0.31497,0.28318 -0.4629,0.43945 -0.14792,0.15627 -0.28906,0.32297 -0.42334,0.49951 -0.13427,0.17654 -0.26162,0.3631 -0.38085,0.56104 -0.11924,0.19793 -0.22974,0.40651 -0.33252,0.62695 -0.10279,0.22044 -0.19778,0.4532 -0.28272,0.69726 -0.17,0.48838 -0.32306,0.94618 -0.45996,1.37696 -0.1369,0.43077 -0.25701,0.83406 -0.36328,1.21142 -0.10627,0.37736 -0.19873,0.7295 -0.27686,1.05762 -0.0781,0.32812 -0.14235,0.63247 -0.19482,0.91553 -0.0525,0.28306 -0.0923,0.54444 -0.12158,0.78662 -0.0293,0.24218 -0.0486,0.46541 -0.0571,0.6709 -0.009,0.20548 -0.007,0.39246 0.003,0.56543 0.01,0.17296 0.0274,0.33145 0.0527,0.47607 0.0126,0.0723 0.0291,0.1434 0.0498,0.21387 0.0207,0.0705 0.0459,0.14093 0.0747,0.20947 0.0288,0.0686 0.0614,0.13562 0.0982,0.20215 0.0367,0.0665 0.077,0.13186 0.12158,0.19629 0.0446,0.0644 0.094,0.12818 0.14648,0.19043 0.0524,0.0622 0.10826,0.12313 0.16846,0.1831 0.12041,0.11996 0.25623,0.23536 0.40723,0.34571 0.151,0.11034 0.31701,0.21489 0.49805,0.31494 0.18103,0.10004 0.3769,0.19512 0.5874,0.28418 0.2105,0.089 0.43588,0.17311 0.67529,0.25049 0.23941,0.0774 0.4925,0.14886 0.76025,0.21386 0.53525,0.13 1.07417,0.25044 1.60987,0.35889 0.5357,0.10845 1.06826,0.20458 1.59082,0.28565 0.26128,0.0405 0.52092,0.0773 0.77637,0.10986 0.25544,0.0326 0.50794,0.061 0.75585,0.085 0.24792,0.0239 0.49082,0.0426 0.7295,0.0571 0.23868,0.0145 0.47244,0.0249 0.70019,0.0293 0,0 0.34167,0.0174 0.88477,0.0278 0.27154,0.005 0.59318,0.009 0.94775,0.007 z" />
    </g>
  </g>
</svg>
